<svg width="66" height="66" viewBox="0 0 66 66" fill="none" xmlns="http://www.w3.org/2000/svg">
<path d="M59.0924 50.3651C60.0653 49.2271 60.6544 47.7517 60.6544 46.1404V45.4435C60.6544 41.8517 57.7324 38.9297 54.1406 38.9297C50.5489 38.9297 47.6268 41.8517 47.6268 45.4435V46.1404C47.6268 47.7517 48.216 49.2271 49.1888 50.3651C46.8076 50.9779 44.7979 52.5233 43.5703 54.5863C42.3427 52.5233 40.3331 50.9779 37.9518 50.3651C38.9247 49.2271 39.5138 47.7517 39.5138 46.1404V45.4435C39.5138 41.8517 36.5918 38.9297 33 38.9297C29.4082 38.9297 26.4862 41.8517 26.4862 45.4435V46.1404C26.4862 47.7517 27.0753 49.2271 28.0482 50.3651C25.6669 50.9779 23.6573 52.5233 22.4297 54.5863C21.2021 52.5233 19.1924 50.9779 16.8112 50.3651C17.784 49.2271 18.3732 47.7517 18.3732 46.1404V45.4435C18.3732 41.8517 15.4511 38.9297 11.8594 38.9297C8.26762 38.9297 5.34558 41.8517 5.34558 45.4435V46.1404C5.34558 47.7517 5.93472 49.2271 6.90756 50.3651C2.94017 51.3863 0 54.9936 0 59.2752V64.7109C0 65.4229 0.577057 66 1.28906 66H64.7109C65.4229 66 66 65.4229 66 64.7109V59.2752C66 54.9936 63.0598 51.3863 59.0924 50.3651ZM50.205 45.4435C50.205 43.2732 51.9704 41.5078 54.1406 41.5078C56.3109 41.5078 58.0763 43.2732 58.0763 45.4435V46.1404C58.0763 48.3106 56.3109 50.076 54.1406 50.076C51.9704 50.076 50.205 48.3106 50.205 46.1404V45.4435ZM29.0643 45.4435C29.0643 43.2732 30.8297 41.5078 33 41.5078C35.1703 41.5078 36.9357 43.2732 36.9357 45.4435V46.1404C36.9357 48.3106 35.1703 50.076 33 50.076C30.8297 50.076 29.0643 48.3106 29.0643 46.1404V45.4435ZM7.92371 45.4435C7.92371 43.2732 9.68912 41.5078 11.8594 41.5078C14.0296 41.5078 15.795 43.2732 15.795 45.4435V46.1404C15.795 48.3106 14.0296 50.076 11.8594 50.076C9.68912 50.076 7.92371 48.3106 7.92371 46.1404V45.4435ZM2.57812 59.2752C2.57812 55.6246 5.548 52.6542 9.19917 52.6542H14.5196C18.1702 52.6542 21.1406 55.6246 21.1406 59.2752V63.4219H2.57812V59.2752ZM23.7188 59.2752C23.7188 55.6246 26.6886 52.6542 30.3398 52.6542H35.6602C39.3109 52.6542 42.2812 55.6246 42.2812 59.2752V63.4219H23.7188V59.2752ZM63.4219 63.4219H44.8594V59.2752C44.8594 55.6246 47.8293 52.6542 51.4804 52.6542H56.8008C60.4515 52.6542 63.4219 55.6246 63.4219 59.2752V63.4219Z" fill="#D1D5DB"/>
<path d="M9.96959 25.8568L9.95801 33.0141C9.957 33.5126 10.244 33.9673 10.6942 34.1808C10.8704 34.2644 11.0592 34.3057 11.2466 34.3057C11.5391 34.3057 11.8287 34.206 12.0633 34.0136L19.345 28.0537H27.4006L32.009 33.8208C32.2608 34.136 32.647 34.3173 33.0488 34.3047C33.4522 34.2946 33.8273 34.0962 34.0625 33.7689L38.1724 28.0532H46.7069L53.9553 34.0121C54.3405 34.3288 54.8738 34.3948 55.3244 34.1818C55.7756 33.9688 56.0631 33.5146 56.0631 33.0161V25.8361C60.0638 23.2661 62.5195 18.8092 62.5195 14.0266C62.5195 6.29224 56.2273 0 48.4929 0H17.5071C9.77271 0 3.48047 6.29224 3.48047 14.0266C3.48047 18.8253 5.94832 23.2902 9.96959 25.8568ZM17.5071 2.57812H48.4929C54.8058 2.57812 59.9414 7.71423 59.9414 14.0266C59.9414 18.1385 57.7173 21.9554 54.1376 23.9892C53.7343 24.2178 53.485 24.6458 53.485 25.1095V30.2879L47.9869 25.7687C47.7562 25.5788 47.4672 25.4751 47.1686 25.4751H37.5117C37.0968 25.4751 36.7076 25.675 36.4654 26.0119L32.9622 30.8831L29.0281 25.9595C28.7834 25.6534 28.4128 25.4751 28.021 25.4751H18.8848C18.5872 25.4751 18.2986 25.5783 18.068 25.7666L12.5407 30.2915L12.5487 25.1307C12.5497 24.6644 12.299 24.2344 11.8931 24.0058C8.29431 21.9765 6.05859 18.1526 6.05859 14.0266C6.05859 7.71423 11.1942 2.57812 17.5071 2.57812Z" fill="#D1D5DB"/>
<path d="M48.4932 7.73438H48.5365H48.5415C49.251 7.73438 49.828 7.16084 49.8306 6.45035C49.8336 5.73834 49.2585 5.15927 48.5465 5.15625H48.4932C47.7812 5.15625 47.2041 5.73331 47.2041 6.44531C47.2041 7.15732 47.7812 7.73438 48.4932 7.73438Z" fill="#D1D5DB"/>
<path d="M52.6257 9.28677C53.9978 10.4852 54.7848 12.2128 54.7848 14.0266C54.7848 15.7442 54.1025 17.3495 52.8638 18.5479C52.3522 19.0429 52.3386 19.8586 52.8331 20.3707C53.0864 20.632 53.4228 20.7635 53.7601 20.7635C54.0829 20.7635 54.4057 20.6431 54.6559 20.4009C56.4017 18.7125 57.363 16.4491 57.363 14.0266C57.363 11.4681 56.2542 9.03248 54.3216 7.34462C53.7853 6.87632 52.9711 6.93171 52.5028 7.46798C52.0345 8.00425 52.0894 8.81848 52.6257 9.28677Z" fill="#D1D5DB"/>
<path d="M29.0377 18.0811C30.6415 19.565 32.2251 20.6461 32.2916 20.6914C32.5101 20.8405 32.7634 20.9145 33.0167 20.9145C33.2695 20.9145 33.5228 20.84 33.7413 20.6914C33.8078 20.6461 35.3914 19.565 36.9952 18.0811C39.3623 15.8917 40.5124 14.0205 40.5124 12.3619C40.5124 9.48213 38.3215 7.13916 35.6281 7.13916C34.698 7.13916 33.7912 7.42567 33.0167 7.94885C32.2413 7.42567 31.3349 7.13916 30.4048 7.13916C27.7114 7.13916 25.5205 9.48163 25.5205 12.3619C25.5205 14.0205 26.6706 15.8912 29.0377 18.0811ZM30.4048 9.71729C31.0227 9.71729 31.6038 9.99574 32.0414 10.5018C32.2866 10.7848 32.6421 10.9474 33.0167 10.9474C33.3908 10.9474 33.7463 10.7848 33.9916 10.5018C34.4291 9.99574 35.0102 9.71729 35.6281 9.71729C36.9 9.71729 37.9343 10.9036 37.9343 12.3619C37.9343 13.804 35.2177 16.4048 33.0157 18.0428C30.8137 16.4068 28.0981 13.808 28.0981 12.3619C28.0986 10.9036 29.1329 9.71729 30.4048 9.71729Z" fill="#D1D5DB"/>
</svg>
