<svg width="66" height="66" viewBox="0 0 66 66" fill="none" xmlns="http://www.w3.org/2000/svg">
<g clip-path="url(#clip0)">
<path d="M64.6875 11.7292C64.4456 11.1191 63.913 10.6717 63.2704 10.5389C62.6269 10.4059 61.9611 10.6054 61.4972 11.0695L51.4433 21.1234L46.038 19.9612L44.8759 14.5559L54.9298 4.50186C55.3939 4.0378 55.5931 3.37135 55.4604 2.72875C55.3275 2.08603 54.88 1.55352 54.27 1.31143C47.3675 -1.42576 39.5152 0.197164 34.2655 5.44648C31.7384 7.97356 30.0031 11.1475 29.2472 14.6254C28.6006 17.6008 28.6913 20.6751 29.5038 23.59L2.67274 50.4212C0.949137 52.1447 0 54.4363 0 56.8738C0 59.3112 0.949137 61.6028 2.67287 63.3264C4.39635 65.05 6.68791 65.9992 9.1254 65.9992C11.5628 65.9992 13.8545 65.05 15.5779 63.3264L42.4091 36.4954C45.3241 37.3079 48.3982 37.3986 51.3737 36.7519C54.8515 35.996 58.0256 34.2605 60.5527 31.7336C65.8019 26.4841 67.4248 18.632 64.6875 11.7292ZM57.7956 28.9768C53.8195 32.9529 47.8213 34.3137 42.5138 32.4431C41.8061 32.1938 41.0182 32.3727 40.4875 32.9033L12.821 60.5696C11.8339 61.5569 10.5212 62.1006 9.12514 62.1006C7.72896 62.1006 6.41657 61.5569 5.42927 60.5696C4.44211 59.5823 3.89838 58.2698 3.89838 56.8738C3.89838 55.4777 4.44211 54.1652 5.4294 53.1779L33.0958 25.5115C33.6264 24.9809 33.8053 24.1929 33.556 23.4852C31.6854 18.178 33.046 12.1795 37.0221 8.2034C39.8323 5.39325 43.5859 3.89819 47.4115 3.89819C48.214 3.89819 49.0201 3.96393 49.8207 4.09735L41.3683 12.5497C40.9004 13.0175 40.7018 13.6908 40.8409 14.3378L42.4907 22.012C42.652 22.7614 43.2374 23.3468 43.9867 23.5079L51.661 25.1579C52.3084 25.297 52.9811 25.0984 53.4492 24.6304L61.9014 16.1781C62.6703 20.7959 61.1951 25.5771 57.7956 28.9768Z" fill="#D1D5DB"/>
</g>
<defs>
<clipPath id="clip0">
<rect width="66" height="66" fill="white"/>
</clipPath>
</defs>
</svg>
