<svg width="177" height="178" viewBox="0 0 177 178" fill="none" xmlns="http://www.w3.org/2000/svg">
<g clip-path="url(#clip0_1848_8111)">
<path d="M138.747 2.50798C136.901 3.89269 135.4 5.20047 135.4 5.43125C135.4 5.73897 139.247 11.124 140.44 12.4702C140.631 12.6625 142.362 11.624 144.44 10.0469L148.132 7.27752L146.94 5.66204C146.286 4.77736 145.094 3.1234 144.324 2.04641C143.555 0.930951 142.709 0.0078125 142.478 0.0078125C142.247 0.0078125 140.555 1.12327 138.747 2.50798Z" fill="white"/>
<path d="M80.8167 4.16329C79.0479 5.81724 77.6632 7.35578 77.7399 7.58659C77.8166 7.8174 79.2402 9.43288 80.894 11.1253L83.8941 14.2794L87.3173 11.1253C90.7022 8.04815 90.7405 7.93274 90.1251 7.1635C88.9711 5.74032 84.4712 1.16309 84.2405 1.16309C84.1248 1.20155 82.5861 2.54779 80.8167 4.16329Z" fill="#1D4ED8"/>
<path d="M165.823 2.54652C163.246 3.77737 163.054 3.93123 163.554 4.54666C167.208 8.85461 169.67 12.0472 170.362 13.4319C171.977 16.5474 171.785 20.5477 169.939 22.894C169.131 23.8941 169.016 23.9326 166.208 23.7787C164.208 23.6633 162.516 23.2402 160.861 22.5479C157.592 21.1631 151.053 19.6246 148.476 19.6246C145.63 19.6631 142.783 20.7016 141.783 22.0478C140.591 23.6633 140.745 27.1636 142.091 30.2022C143.399 33.1255 147.322 38.9721 150.592 42.8569C153.438 46.2802 154.015 47.1649 153.669 47.7034C153.207 48.4727 152.361 48.0111 147.091 44.0108C135.744 35.3564 132.398 33.4717 128.552 33.4717C124.359 33.5101 120.628 37.6643 120.128 42.8184C119.974 44.7032 122.051 63.3585 122.513 63.7815C122.705 64.0122 127.667 62.3968 128.167 61.9737C128.321 61.8581 128.013 57.3963 127.474 52.1268C126.975 46.8187 126.552 41.8569 126.552 41.0491V39.6259L127.821 40.1644C128.552 40.4337 133.244 43.4339 138.322 46.8187C143.36 50.1651 148.015 53.1269 148.592 53.3961C149.169 53.6653 150.514 53.8576 151.553 53.8576C153.246 53.8576 153.592 53.7038 155.554 51.9345C158.246 49.4728 159.054 47.5111 158.784 44.0878C158.476 40.6645 157.015 38.0873 151.668 31.7023C148.976 28.5098 147.399 26.3174 147.707 26.2404C147.976 26.125 150.322 27.1251 152.899 28.4713C157.053 30.5869 157.899 30.8561 159.861 30.8561C162.746 30.8946 164.4 30.1638 168.016 27.4328C172.978 23.5864 175.632 20.0477 176.555 15.932C177.286 12.778 176.555 10.7394 173.055 5.73904C171.362 3.31581 169.67 1.31567 169.324 1.27721C168.977 1.23874 167.4 1.81571 165.823 2.54652Z" fill="white"/>
<path d="M54.619 13.894C53.8882 14.0478 52.9266 14.6248 52.465 15.1633C51.6189 16.1249 50.888 18.8943 51.3111 19.5482C51.4265 19.7405 52.3112 20.0098 53.2728 20.1252C56.9269 20.6252 60.3889 23.3177 63.8504 28.2796C66.3508 31.9337 67.5043 34.5107 68.2736 38.0495C68.8123 40.7035 69.6967 50.4349 69.4277 50.7041C69.351 50.7811 66.8122 49.6271 63.7737 48.1271C54.2729 43.396 48.4648 42.6651 44.2722 45.5884C42.3874 46.8577 41.5412 48.3963 41.0028 51.6658C40.695 53.2043 38.3102 60.4353 35.4639 68.09C18.5782 113.978 13.3855 128.248 5.96195 149.095C1.57703 161.365 0 166.404 0 168.212C0 169.789 1.34624 172.482 2.50017 173.251C3.9618 174.213 6.1927 174.366 8.76982 173.712C10.0776 173.404 20.8091 168.904 32.5791 163.712C107.199 131.055 118.546 126.132 120.277 125.902C122.624 125.594 124.739 123.67 125.393 121.171C126.739 116.17 124.162 107.746 118.316 98.0921C117.354 96.515 116.7 95.0919 116.854 94.9379C117.316 94.5149 128.393 92.3992 132.509 91.9762C134.624 91.7838 138.971 91.5148 142.125 91.3991C148.318 91.1684 152.433 90.7071 156.741 89.7454C167.703 87.3222 166.011 81.437 154.241 81.0523C142.24 80.6293 129.663 82.5137 117.239 86.5529L111.546 88.399L109.392 85.6295C104.238 79.2062 90.66 66.4746 81.1592 59.243L77.5053 56.4738L77.467 49.0886C77.467 42.9729 77.313 41.0881 76.582 37.7033C75.0049 30.2797 72.1971 24.8947 67.3119 20.0098C62.5424 15.2018 58.1962 13.1247 54.619 13.894Z" fill="#1D4ED8"/>
<path d="M47.058 24.2007L44.3655 26.47L44.1347 30.2395C43.9808 32.3166 43.904 34.0475 43.9808 34.0859C44.0193 34.1244 45.0579 34.2397 46.2887 34.3551C47.9812 34.4705 48.6735 34.3936 49.212 33.8936C50.289 32.932 53.8661 28.5855 53.8661 28.2778C53.8661 27.7778 50.3659 21.9313 50.0582 21.9313C49.9043 21.9313 48.5581 22.9698 47.058 24.2007Z" fill="white"/>
<path d="M92.8332 30.6286C92.0255 31.2056 90.3333 32.3211 89.1026 33.1672L86.9102 34.6674L89.2949 38.2061C90.6407 40.1292 91.8331 41.8986 91.9871 42.0909C92.1411 42.3217 93.8338 41.3986 96.1029 39.86C98.257 38.3984 99.9875 37.1675 99.9875 37.129C99.9875 36.7829 94.8722 29.6285 94.6415 29.6285C94.4492 29.6285 93.6415 30.0902 92.8332 30.6286Z" fill="white"/>
<path d="M168.592 100.167L165.015 102.975L167.438 106.091C168.746 107.821 169.938 109.206 170.054 109.245C170.284 109.245 175.746 105.091 176.862 104.052C177.246 103.706 176.9 103.014 175.016 100.552C173.708 98.8977 172.515 97.4746 172.4 97.4363C172.246 97.3979 170.515 98.6287 168.592 100.167Z" fill="#1D4ED8"/>
<path d="M138.747 109.437C136.901 110.822 135.4 112.129 135.4 112.361C135.4 112.668 139.208 118.015 140.44 119.399C140.593 119.553 142.401 118.476 144.44 116.976L148.132 114.207L146.94 112.591C146.286 111.706 145.094 110.053 144.324 108.976C143.555 107.86 142.709 106.937 142.478 106.937C142.247 106.937 140.555 108.052 138.747 109.437Z" fill="white"/>
<path d="M147.902 127.404C147.248 130.29 146.555 134.174 146.555 134.867C146.555 135.559 147.017 135.751 151.017 136.521C153.479 136.982 155.518 137.328 155.556 137.252C155.787 136.982 157.364 128.404 157.248 128.25C157.018 128.058 149.671 126.558 148.825 126.558C148.402 126.558 148.017 126.905 147.902 127.404Z" fill="#1D4ED8"/>
</g>
<defs>
<clipPath id="clip0_1848_8111">
<rect width="177" height="177" fill="white" transform="translate(0 0.0078125)"/>
</clipPath>
</defs>
</svg>
