<svg width="20" height="20" viewBox="0 0 20 20" fill="none" xmlns="http://www.w3.org/2000/svg">
<path d="M13.3327 5.83333C13.3327 6.71739 12.9815 7.56523 12.3564 8.19036C11.7313 8.81548 10.8834 9.16667 9.99935 9.16667C9.11529 9.16667 8.26745 8.81548 7.64233 8.19036C7.01721 7.56523 6.66602 6.71739 6.66602 5.83333C6.66602 4.94928 7.01721 4.10143 7.64233 3.47631C8.26745 2.85119 9.11529 2.5 9.99935 2.5C10.8834 2.5 11.7313 2.85119 12.3564 3.47631C12.9815 4.10143 13.3327 4.94928 13.3327 5.83333V5.83333ZM9.99935 11.6667C8.45225 11.6667 6.96852 12.2812 5.87456 13.3752C4.7806 14.4692 4.16602 15.9529 4.16602 17.5H15.8327C15.8327 15.9529 15.2181 14.4692 14.1241 13.3752C13.0302 12.2812 11.5464 11.6667 9.99935 11.6667V11.6667Z" stroke="white" stroke-opacity="0.8" stroke-width="1.66667" stroke-linecap="round" stroke-linejoin="round"/>
</svg>
