<svg width="27" height="27" viewBox="0 0 27 27" fill="none" xmlns="http://www.w3.org/2000/svg">
<rect width="27" height="27" rx="13.5" fill="#E0E7FF"/>
<g clip-path="url(#clip0)">
<path d="M14.2048 14.2198L20.2622 14.2197C20.6563 14.2198 20.9749 13.9012 20.9748 13.5071C20.9748 13.1131 20.6563 12.7946 20.2622 12.7946L14.2047 12.7946L14.2048 6.73714C14.2047 6.34303 13.8863 6.02459 13.4923 6.02459C13.0981 6.02449 12.7796 6.34303 12.7797 6.73714L12.7796 12.7946L6.72219 12.7947C6.32808 12.7946 6.00954 13.1131 6.00964 13.5072C6.00954 13.7037 6.08927 13.8821 6.21827 14.0111C6.34727 14.1401 6.52564 14.2198 6.72219 14.2198L12.7796 14.2197L12.7796 20.2772C12.7796 20.4737 12.8592 20.6521 12.9882 20.7811C13.1172 20.9101 13.2956 20.9897 13.4922 20.9897C13.8863 20.9898 14.2048 20.6713 14.2047 20.2772L14.2048 14.2198Z" fill="#2F1C54"/>
</g>
<defs>
<clipPath id="clip0">
<rect width="11" height="11" fill="white" transform="translate(13.5 5.72192) rotate(45)"/>
</clipPath>
</defs>
</svg>