<svg width="9" height="14" viewBox="0 0 9 14" fill="none" xmlns="http://www.w3.org/2000/svg">
<path d="M8.62993 4.06539L4.57935 0.100053C4.48154 -0.0176714 4.30681 -0.0338305 4.18908 0.0639401C4.17599 0.0748352 4.16387 0.0869137 4.15297 0.100053L0.102388 4.06539C-0.0271292 4.18544 -0.0348006 4.3878 0.0852499 4.51732C0.144786 4.58154 0.228029 4.61855 0.315598 4.6197H2.23428V9.75755C2.27068 9.97227 2.44435 10.1372 2.66066 10.1626H6.0717C6.24227 10.1626 6.28487 9.94946 6.28487 9.75755V4.6197H8.41676C8.59337 4.61737 8.73464 4.47235 8.73231 4.29574C8.73117 4.20817 8.69416 4.12493 8.62993 4.06539Z" fill="white"/>
<path d="M6.07262 10.8022H2.66159C2.48498 10.8022 2.3418 10.9454 2.3418 11.122C2.3418 11.2986 2.48498 11.4418 2.66159 11.4418H6.07262C6.24923 11.4418 6.39242 11.2986 6.39242 11.122C6.39242 10.9454 6.24927 10.8022 6.07262 10.8022Z" fill="white"/>
<path d="M6.07262 12.082H2.66159C2.48498 12.082 2.3418 12.2252 2.3418 12.4018C2.3418 12.5784 2.48498 12.7216 2.66159 12.7216H6.07262C6.24923 12.7216 6.39242 12.5784 6.39242 12.4018C6.39242 12.2252 6.24927 12.082 6.07262 12.082Z" fill="white"/>
<path d="M6.07262 13.3604H2.66159C2.48498 13.3604 2.3418 13.5035 2.3418 13.6801C2.3418 13.8568 2.48498 13.9999 2.66159 13.9999H6.07262C6.24923 13.9999 6.39242 13.8568 6.39242 13.6801C6.39242 13.5035 6.24927 13.3604 6.07262 13.3604Z" fill="white"/>
</svg>

