<svg width="98" height="98" viewBox="0 0 98 98" fill="none" xmlns="http://www.w3.org/2000/svg">
<g clip-path="url(#clip0_1864_8143)">
<path d="M48.58 0C21.793 0 0 21.793 0 48.58C0 75.367 21.793 97.16 48.58 97.16C75.367 97.16 97.16 75.367 97.16 48.58C97.16 21.793 75.367 0 48.58 0ZM48.58 86.823C27.493 86.823 10.336 69.668 10.336 48.58C10.336 27.492 27.493 10.337 48.58 10.337C69.667 10.337 86.824 27.492 86.824 48.58C86.824 69.668 69.667 86.823 48.58 86.823Z" fill="#12B881"/>
<path d="M73.8979 47.0801H52.0659V20.8301C52.0659 18.6211 50.2749 16.8301 48.0659 16.8301C45.8569 16.8301 44.0659 18.6211 44.0659 20.8301V51.0801C44.0659 53.2891 45.8569 55.0801 48.0659 55.0801H73.8979C76.1069 55.0801 77.8979 53.2891 77.8979 51.0801C77.8979 48.8711 76.1069 47.0801 73.8979 47.0801Z" fill="#12B881"/>
</g>
<defs>
<clipPath id="clip0_1864_8143">
<rect width="97.16" height="97.16" fill="white"/>
</clipPath>
</defs>
</svg>
