<svg width="16" height="17" viewBox="0 0 16 17" fill="none" xmlns="http://www.w3.org/2000/svg">
<g clip-path="url(#clip0)">
<path d="M2.46667 1.67432L4.06133 6.12432H0L2.46667 1.67432Z" fill="#2563EB"/>
<path d="M7.37419 1.71521L4.86619 5.34454L3.38086 1.20654H7.02619L7.37419 1.71521Z" fill="#2563EB"/>
<path d="M10.4337 6.12452H5.56836L8.00103 2.61719L10.4337 6.12452Z" fill="#2563EB"/>
<path d="M12.6183 1.20654L11.1397 5.34454L8.625 1.71521L8.973 1.20654H12.6183Z" fill="#2563EB"/>
<path d="M16 6.12432H11.9453L13.54 1.67432L16 6.12432Z" fill="#2563EB"/>
<path d="M7.54177 15.8732L7.4191 15.7239L0.148438 7.14258H4.4211L7.4531 15.6219L7.54177 15.8732Z" fill="#2563EB"/>
<path d="M10.4939 7.14258L7.99986 14.1092L5.50586 7.14258H10.4939Z" fill="#2563EB"/>
<path d="M15.8504 7.14258L8.5797 15.7239L8.45703 15.8666L8.53836 15.6292L11.5777 7.14258H15.8504Z" fill="#2563EB"/>
</g>
<defs>
<clipPath id="clip0">
<rect width="16" height="16" fill="white" transform="translate(0 0.5)"/>
</clipPath>
</defs>
</svg>
