<svg width="49" height="46" viewBox="0 0 49 46" fill="none" xmlns="http://www.w3.org/2000/svg">
<path d="M12.2713 15.7227C12.2713 15.7227 10.8158 15.8377 10.6218 16.1649C10.4254 16.4921 10.4142 16.9953 10.4142 17.5482C10.4142 18.1033 10.3916 19.376 10.3916 19.376L10.7391 20.1229C10.7391 20.1229 10.8045 29.6433 10.8045 29.9389C10.8045 30.2322 10.8045 30.591 11.2288 30.8189C11.653 31.0468 22.4348 36.2549 22.771 36.3948C23.2787 36.6047 23.5202 36.5257 23.5202 36.5257L35.5001 16.4899C35.5001 16.4899 35.4618 15.9415 34.9631 15.8107C34.6765 15.7385 12.2713 15.7227 12.2713 15.7227V15.7227Z" fill="#F5B03E"/>
<path d="M23.3683 22.2925C23.1855 22.7957 23.269 27.9993 23.3006 31.7835C23.3321 35.5655 23.2035 36.3485 23.3006 36.4794C23.3976 36.6103 23.6616 36.4839 24.4085 36.1522C25.7963 35.5384 32.4621 32.2393 32.9518 31.946C33.4414 31.6526 34.6374 31.0456 34.8337 30.7184C35.0301 30.3912 35.1361 27.3472 35.2015 24.9033C35.267 22.4572 35.3324 20.5008 35.3324 20.5008L35.6258 19.6208C35.6258 19.6208 35.5626 17.2424 35.5513 16.9806C35.531 16.5473 35.4836 16.3239 35.373 16.3781C35.2151 16.4526 33.8973 17.5335 30.4087 19.2304C28.2176 20.2932 23.4946 21.945 23.3683 22.2925V22.2925Z" fill="#E07F14"/>
<path d="M23.4025 11.0976C22.4254 11.0525 19.7514 12.5982 17.1744 13.4444C14.5974 14.2907 10.7072 15.9921 10.6733 16.0914C10.6417 16.1884 12.2394 16.9037 13.2593 17.3934C14.4711 17.9733 19.097 20.1644 19.9432 20.5232C20.7916 20.882 22.8135 21.7214 23.1384 21.6966C23.5943 21.665 27.8997 19.9681 30.0841 18.9256C32.2684 17.8831 34.9988 16.2674 35.0349 15.8747C35.0507 15.6987 31.0183 14.1936 29.0077 13.2842C25.1265 11.5264 24.1178 11.1315 23.4025 11.0976V11.0976Z" fill="#FDD717"/>
<path d="M10.3804 19.7833C10.4142 20.2075 10.6466 20.3587 11.2378 20.616C11.8291 20.8732 23.0057 26.6793 23.2629 26.6793C23.5202 26.6793 23.5969 25.7586 23.3148 25.7834C23.1614 25.797 19.49 24.0527 16.0601 22.3106C13.1491 20.8348 10.3623 19.3613 10.3623 19.3613L10.3804 19.7833V19.7833Z" fill="#E37D14"/>
<path d="M35.6471 19.6152C35.6471 19.6152 23.7122 25.6853 23.5949 25.744C23.4776 25.8027 23.2903 25.7824 23.2903 25.7824L23.2812 26.6872C23.2812 26.6872 23.3918 26.7121 23.5159 26.6737C23.5881 26.6511 35.3018 20.5878 35.3537 20.5698C35.4056 20.5517 35.6313 20.4163 35.6787 20.1297C35.7193 19.8996 35.6471 19.6152 35.6471 19.6152V19.6152Z" fill="#BA5E0D"/>
<path d="M15.0667 30.5384L17.4022 34.0135L18.4244 34.3633C18.4244 34.3633 18.5079 30.5723 18.5417 27.7629C18.5891 23.6582 18.5711 19.9146 18.6298 19.7025C18.7268 19.3437 23.2692 17.8702 23.2692 17.8702C23.2692 17.8702 28.4006 19.4791 28.563 19.8379C28.6353 19.9959 28.5788 22.6541 28.563 25.7523C28.5427 29.6651 28.5495 34.1827 28.5495 34.1827C28.5495 34.1827 29.0798 34.1805 29.143 33.9842C29.2084 33.7878 29.4702 32.2737 29.4702 32.2737L31.4604 19.0075L32.4714 17.7032L31.0678 15.0315L25.3091 12.1973L23.3301 12.6418L21.1887 12.3146L14.3965 17.1955L15.1885 18.8022L17.1314 19.7928L15.0667 30.5384V30.5384Z" fill="#AF0F1B"/>
<path d="M29.1665 19.7157C29.0424 19.9887 29.1146 34.0582 29.1146 34.0582C29.1146 34.0582 29.7352 33.7152 30.534 33.3316C31.3283 32.9503 31.8992 32.7133 31.9489 32.5148C31.9985 32.3162 32.0865 18.4023 32.0865 18.4023L29.1665 19.7157Z" fill="#DC0D28"/>
<path d="M17.8859 19.4114C17.9604 19.4926 17.8385 34.0925 17.6874 34.1263C17.5678 34.1556 14.8486 32.9416 14.8486 32.8175C14.8486 32.6934 15.0675 18.7412 15.0675 18.7412C15.0675 18.7412 17.6648 19.1632 17.8859 19.4114Z" fill="#FF2A23"/>
<path d="M23.2869 11.7734C22.5354 11.7734 21.705 11.9878 21.4636 12.6174C21.2221 13.247 21.168 14.1834 21.168 14.883C21.168 15.5531 21.0597 17.2681 23.1244 17.241C25.1891 17.214 25.2501 16.449 25.2816 14.7611C25.3087 13.353 25.1214 12.6693 24.9341 12.3759C24.7672 12.1119 24.212 11.7734 23.2869 11.7734V11.7734Z" fill="#FF2A23"/>
<path d="M22.0817 15.2543C22.5511 15.2814 22.7519 14.2502 23.113 13.686C23.474 13.1242 23.8508 12.7473 23.7154 12.454C23.6049 12.2103 22.6233 12.1313 22.093 12.8692C21.7207 13.3904 21.6552 15.2295 22.0817 15.2543Z" fill="#FCC9D2"/>
<path d="M25.1152 12.2528C25.1152 12.2528 25.7809 12.9297 25.9547 14.2566C26.1284 15.5834 25.9276 16.6147 25.9276 16.6147C25.9276 16.6147 29.2357 16.5154 30.3775 16.7343C31.5035 16.9531 31.8961 17.4496 31.8961 17.8106C31.8961 18.1717 31.156 18.4628 30.4046 18.4086C29.6531 18.3544 29.1454 18.3138 29.0506 18.5034C28.9559 18.6929 29.0913 18.9863 30.136 19.0653C31.1808 19.1465 32.3881 18.9976 32.7627 17.6978C33.1372 16.398 33.1508 14.146 33.0176 12.5235C32.8845 10.9011 32.5912 9.97366 31.8645 9.62164C31.0996 9.25382 29.1838 9.19289 27.374 10.2106C25.5643 11.2283 25.1152 12.2528 25.1152 12.2528V12.2528Z" fill="#FF2A23"/>
<path d="M28.8669 10.7107C28.6322 10.4083 27.8762 10.4173 27.4723 10.8844C27.0436 11.3809 26.9488 13.2696 27.4994 13.3779C28.1222 13.4997 28.0094 12.4798 28.4652 11.8502C28.912 11.2342 29.0948 11.0063 28.8669 10.7107V10.7107Z" fill="#FCC9D2"/>
<path d="M21.27 12.3418C21.27 12.3418 18.7359 9.388 15.8407 9.43313C14.0987 9.46021 13.6564 10.4644 13.5616 10.8796C13.4668 11.2948 12.7447 15.4242 13.7083 17.6605C14.6718 19.8967 16.6711 19.3168 16.9848 19.2446C17.3864 19.1498 18.2417 18.8564 18.1604 18.5473C18.0792 18.2382 15.2382 19.3506 15.2111 18.0779C15.1841 16.8052 17.2217 16.6699 18.1604 16.6428C19.0992 16.6157 20.7081 16.8301 20.7081 16.8301C20.7081 16.8301 20.426 15.2889 20.6133 14.1899C20.8006 13.091 21.27 12.3418 21.27 12.3418V12.3418Z" fill="#FF2A23"/>
<path d="M15.0702 10.4918C14.7092 10.8664 14.5602 13.0259 14.7881 14.0978C15.0161 15.1696 15.2169 15.6255 15.6862 15.5329C16.0789 15.454 16.3158 13.3509 16.5031 12.6107C16.7039 11.8209 17.2004 10.9815 16.9996 10.6137C16.6927 10.0496 15.4471 10.1015 15.0702 10.4918Z" fill="#FCC9D2"/>
<g opacity="0.8">
<path d="M41.5701 7.5678L37.3375 3.33522L33.1049 7.5678L31.8047 6.25837L37.3375 0.725586L42.8703 6.25837L41.5701 7.5678ZM41.5701 13.1006L37.3375 8.868L33.1049 13.1006L31.8047 11.7912L37.3375 6.25837L42.8703 11.7912L41.5701 13.1006ZM41.5701 18.6334L37.3375 14.4008L33.1049 18.6334L31.8047 17.3239L37.3375 11.7912L42.8703 17.3239L41.5701 18.6334Z" fill="white"/>
</g>
</svg>
