<svg width="32" height="32" viewBox="0 0 32 32" fill="none" xmlns="http://www.w3.org/2000/svg">
<g clip-path="url(#clip0)">
<g filter="url(#filter0_d)">
<path d="M16.0524 2.66699C8.77242 2.66699 2.83909 8.60033 2.83909 15.8803C2.83909 18.2137 3.45242 20.4803 4.59909 22.4803L2.73242 29.3337L9.73242 27.4937C11.6658 28.547 13.8391 29.107 16.0524 29.107C23.3324 29.107 29.2658 23.1737 29.2658 15.8937C29.2658 12.3603 27.8924 9.04033 25.3991 6.54699C22.9058 4.04033 19.5858 2.66699 16.0524 2.66699ZM16.0658 4.89366C18.9991 4.89366 21.7458 6.04033 23.8258 8.12033C25.8924 10.2003 27.0391 12.9603 27.0391 15.8937C27.0391 21.947 22.1058 26.867 16.0524 26.867C14.0791 26.867 12.1458 26.347 10.4658 25.3337L10.0658 25.107L5.90575 26.2003L7.01242 22.147L6.74575 21.7203C5.65242 20.0003 5.06576 17.9603 5.06576 15.8803C5.07909 9.82699 9.99909 4.89366 16.0658 4.89366ZM11.3724 9.77366C11.1591 9.77366 10.7991 9.85366 10.4924 10.187C10.1991 10.5203 9.33242 11.3337 9.33242 12.947C9.33242 14.5737 10.5191 16.1337 10.6658 16.3603C10.8524 16.587 13.0124 19.9203 16.3324 21.3337C17.1191 21.6937 17.7324 21.8937 18.2124 22.0403C18.9991 22.2937 19.7191 22.2537 20.2924 22.1737C20.9324 22.0803 22.2391 21.3737 22.5191 20.6003C22.7991 19.827 22.7991 19.1737 22.7191 19.027C22.6258 18.8937 22.4124 18.8137 22.0791 18.667C21.7458 18.4803 20.1191 17.6803 19.8258 17.5737C19.5191 17.467 19.3324 17.4137 19.0791 17.7337C18.8658 18.067 18.2258 18.8137 18.0391 19.027C17.8391 19.2537 17.6524 19.2803 17.3324 19.1203C16.9858 18.947 15.9191 18.6003 14.6658 17.4803C13.6791 16.6003 13.0258 15.5203 12.8258 15.187C12.6658 14.867 12.8124 14.667 12.9724 14.5203C13.1191 14.3737 13.3324 14.1337 13.4658 13.9337C13.6391 13.747 13.6924 13.6003 13.7991 13.387C13.9058 13.1603 13.8524 12.9737 13.7724 12.8137C13.6924 12.667 13.0258 11.0137 12.7458 10.3603C12.4791 9.72033 12.2124 9.80033 11.9991 9.78699C11.8124 9.78699 11.5991 9.77366 11.3724 9.77366Z" fill="url(#paint0_linear)"/>
</g>
</g>
<defs>
<filter id="filter0_d" x="-5.26758" y="-5.33301" width="42.5333" height="42.6667" filterUnits="userSpaceOnUse" color-interpolation-filters="sRGB">
<feFlood flood-opacity="0" result="BackgroundImageFix"/>
<feColorMatrix in="SourceAlpha" type="matrix" values="0 0 0 0 0 0 0 0 0 0 0 0 0 0 0 0 0 0 127 0" result="hardAlpha"/>
<feOffset/>
<feGaussianBlur stdDeviation="4"/>
<feComposite in2="hardAlpha" operator="out"/>
<feColorMatrix type="matrix" values="0 0 0 0 0 0 0 0 0 0 0 0 0 0 0 0 0 0 0.5 0"/>
<feBlend mode="normal" in2="BackgroundImageFix" result="effect1_dropShadow"/>
<feBlend mode="normal" in="SourceGraphic" in2="effect1_dropShadow" result="shape"/>
</filter>
<linearGradient id="paint0_linear" x1="28.999" y1="3.00049" x2="2.99902" y2="29.0005" gradientUnits="userSpaceOnUse">
<stop stop-color="#28D146"/>
<stop offset="1" stop-color="#5EFB7A"/>
</linearGradient>
<clipPath id="clip0">
<rect width="32" height="32" fill="white"/>
</clipPath>
</defs>
</svg>