<svg width="13" height="14" viewBox="0 0 13 14" fill="none" xmlns="http://www.w3.org/2000/svg">
<circle cx="6.49984" cy="6.49984" r="6.49984" fill="#625E5E"/>
<path d="M5.25967 8.2204C5.25967 7.70013 5.31847 7.29033 5.43606 6.99099C5.55366 6.68809 5.74431 6.42618 6.00801 6.20524C6.27171 5.9843 6.47126 5.78296 6.60668 5.60122C6.74565 5.41592 6.81514 5.2128 6.81514 4.99186C6.81514 4.45377 6.58351 4.18473 6.12026 4.18473C5.90645 4.18473 5.73362 4.26312 5.60177 4.41992C5.46992 4.57671 5.40043 4.78874 5.3933 5.05601H3.5866C3.59373 4.3433 3.81823 3.78918 4.26011 3.39363C4.70198 2.99452 5.32203 2.79496 6.12026 2.79496C6.91492 2.79496 7.52963 2.97848 7.96437 3.34552C8.40269 3.71256 8.62184 4.23462 8.62184 4.91168C8.62184 5.20746 8.56304 5.4765 8.44545 5.71882C8.32785 5.96114 8.13899 6.2088 7.87885 6.46181L7.26414 7.03375C7.08953 7.20124 6.96837 7.37407 6.90067 7.55224C6.83296 7.72686 6.79554 7.94958 6.78842 8.2204H5.25967ZM5.04051 9.84536C5.04051 9.58166 5.13495 9.36607 5.32381 9.19859C5.51624 9.02754 5.755 8.94201 6.04008 8.94201C6.32516 8.94201 6.56213 9.02754 6.751 9.19859C6.94343 9.36607 7.03964 9.58166 7.03964 9.84536C7.03964 10.1091 6.94343 10.3264 6.751 10.4975C6.56213 10.665 6.32516 10.7487 6.04008 10.7487C5.755 10.7487 5.51624 10.665 5.32381 10.4975C5.13495 10.3264 5.04051 10.1091 5.04051 9.84536Z" fill="white"/>
</svg>
