<svg width="17" height="17" viewBox="0 0 17 17" fill="none" xmlns="http://www.w3.org/2000/svg">
<path d="M14.9861 5.17024C14.9533 4.42636 14.833 3.91496 14.6607 3.47182C14.4829 3.00143 14.2095 2.5803 13.8511 2.23021C13.501 1.87467 13.0771 1.5984 12.6122 1.42341C12.1665 1.25109 11.6578 1.1308 10.9139 1.098C10.1645 1.06243 9.92654 1.0542 8.02578 1.0542C6.12502 1.0542 5.8871 1.06243 5.14045 1.09522C4.39658 1.12802 3.88517 1.24842 3.44214 1.42063C2.97165 1.5984 2.55051 1.87189 2.20042 2.23021C1.84489 2.5803 1.56873 3.00421 1.39363 3.46915C1.22131 3.91496 1.10101 4.42359 1.06822 5.16746C1.03264 5.91689 1.02441 6.1548 1.02441 8.05557C1.02441 9.95633 1.03264 10.1942 1.06544 10.9409C1.09824 11.6848 1.21864 12.1962 1.39096 12.6393C1.56873 13.1097 1.84489 13.5308 2.20042 13.8809C2.55051 14.2365 2.97443 14.5127 3.43936 14.6877C3.88517 14.86 4.3938 14.9803 5.13778 15.0131C5.88433 15.046 6.12235 15.0542 8.02311 15.0542C9.92387 15.0542 10.1618 15.046 10.9084 15.0131C11.6523 14.9803 12.1637 14.86 12.6068 14.6877C13.5476 14.324 14.2915 13.5801 14.6553 12.6393C14.8275 12.1935 14.9479 11.6848 14.9807 10.9409C15.0135 10.1942 15.0217 9.95633 15.0217 8.05557C15.0217 6.1548 15.0189 5.91689 14.9861 5.17024ZM13.7254 10.8862C13.6953 11.5699 13.5804 11.9391 13.4847 12.1853C13.2495 12.7952 12.7654 13.2792 12.1555 13.5145C11.9094 13.6102 11.5375 13.7251 10.8564 13.7551C10.118 13.788 9.89652 13.7961 8.02856 13.7961C6.16059 13.7961 5.93635 13.788 5.2006 13.7551C4.51687 13.7251 4.14766 13.6102 3.90152 13.5145C3.59801 13.4023 3.32174 13.2245 3.0975 12.9921C2.86503 12.7651 2.68726 12.4916 2.57509 12.1881C2.47936 11.9419 2.36452 11.5699 2.3345 10.889C2.3016 10.1505 2.29348 9.92898 2.29348 8.06102C2.29348 6.19305 2.3016 5.96881 2.3345 5.23316C2.36452 4.54943 2.47936 4.18022 2.57509 3.93408C2.68726 3.63046 2.86503 3.3543 3.10027 3.12995C3.32719 2.89749 3.60068 2.71972 3.90429 2.60765C4.15044 2.51193 4.52243 2.39708 5.20338 2.36696C5.9418 2.33416 6.16337 2.32593 8.03123 2.32593C9.90197 2.32593 10.1234 2.33416 10.8592 2.36696C11.5429 2.39708 11.9121 2.51193 12.1583 2.60765C12.4618 2.71972 12.7381 2.89749 12.9623 3.12995C13.1948 3.35697 13.3725 3.63046 13.4847 3.93408C13.5804 4.18022 13.6953 4.55211 13.7254 5.23316C13.7582 5.97159 13.7664 6.19305 13.7664 8.06102C13.7664 9.92898 13.7582 10.1478 13.7254 10.8862Z" fill="white"/>
<path d="M8.02609 4.45947C6.04061 4.45947 4.42969 6.07029 4.42969 8.05588C4.42969 10.0415 6.04061 11.6523 8.02609 11.6523C10.0117 11.6523 11.6225 10.0415 11.6225 8.05588C11.6225 6.07029 10.0117 4.45947 8.02609 4.45947ZM8.02609 10.3888C6.73801 10.3888 5.69319 9.34406 5.69319 8.05588C5.69319 6.76769 6.73801 5.72298 8.02609 5.72298C9.31428 5.72298 10.359 6.76769 10.359 8.05588C10.359 9.34406 9.31428 10.3888 8.02609 10.3888Z" fill="white"/>
<path d="M12.6041 4.31713C12.6041 4.78079 12.2282 5.15673 11.7644 5.15673C11.3007 5.15673 10.9248 4.78079 10.9248 4.31713C10.9248 3.85338 11.3007 3.47754 11.7644 3.47754C12.2282 3.47754 12.6041 3.85338 12.6041 4.31713Z" fill="white"/>
</svg>