<svg width="30" height="30" viewBox="0 0 30 30" fill="none" xmlns="http://www.w3.org/2000/svg">
<path d="M23.5164 0.423824C23.2035 0.65852 22.9492 0.880178 22.9492 0.919294C22.9492 0.971449 23.6012 1.88416 23.8033 2.11233C23.8358 2.14493 24.1292 1.96891 24.4813 1.70161L25.1071 1.23222L24.905 0.95841C24.7942 0.808465 24.5921 0.528133 24.4617 0.345592C24.3313 0.156531 24.1879 6.68117e-05 24.1488 6.68117e-05C24.1097 6.68117e-05 23.8228 0.189128 23.5164 0.423824Z" fill="white"/>
<path d="M13.6978 0.704359C13.398 0.98469 13.1633 1.24546 13.1763 1.28458C13.1893 1.3237 13.4306 1.59751 13.7109 1.88436L14.2194 2.41895L14.7996 1.88436C15.3733 1.36281 15.3798 1.34325 15.2755 1.21287C15.0799 0.971652 14.3172 0.19585 14.2781 0.19585C14.2585 0.202369 13.9977 0.430546 13.6978 0.704359Z" fill="#1D4ED8"/>
<path d="M28.1057 0.430392C27.6689 0.639011 27.6363 0.665088 27.7211 0.769398C28.3404 1.49956 28.7577 2.04067 28.875 2.27537C29.1488 2.80343 29.1162 3.48144 28.8033 3.87912C28.6664 4.04863 28.6468 4.05515 28.1709 4.02907C27.8319 4.00951 27.5451 3.9378 27.2647 3.82045C26.7106 3.58575 25.6023 3.32498 25.1655 3.32498C24.6831 3.3315 24.2006 3.50752 24.0311 3.7357C23.829 4.00951 23.8551 4.60277 24.0833 5.1178C24.305 5.61327 24.9699 6.60421 25.5241 7.26266C26.0065 7.84288 26.1043 7.99283 26.0456 8.0841C25.9674 8.21449 25.824 8.13625 24.9308 7.45824C23.0076 5.99139 22.4404 5.67194 21.7885 5.67194C21.0779 5.67846 20.4455 6.38255 20.3608 7.25614C20.3347 7.57559 20.6867 10.7375 20.765 10.8092C20.7975 10.8483 21.6385 10.5745 21.7233 10.5028C21.7494 10.4832 21.6972 9.72697 21.6059 8.83382C21.5212 7.93415 21.4495 7.09316 21.4495 6.95625V6.71504L21.6646 6.80631C21.7885 6.85194 22.5838 7.36045 23.4444 7.93415C24.2984 8.50134 25.0873 9.00333 25.1851 9.04896C25.2829 9.0946 25.511 9.12719 25.6871 9.12719C25.9739 9.12719 26.0326 9.10112 26.3651 8.80123C26.8214 8.38399 26.9583 8.0515 26.9127 7.47128C26.8605 6.89106 26.6128 6.45426 25.7066 5.37205C25.2503 4.83095 24.983 4.45935 25.0351 4.44631C25.0808 4.42675 25.4784 4.59625 25.9152 4.82443C26.6193 5.18299 26.7627 5.22863 27.0952 5.22863C27.5842 5.23515 27.8645 5.11128 28.4773 4.64841C29.3183 3.99647 29.7682 3.39669 29.9246 2.69912C30.0485 2.16454 29.9246 1.81901 29.3314 0.971497C29.0445 0.560779 28.7577 0.221773 28.699 0.215254C28.6403 0.208734 28.373 0.306525 28.1057 0.430392Z" fill="white"/>
<path d="M9.25746 2.35364C9.1336 2.37971 8.97061 2.4775 8.89238 2.56877C8.74896 2.73176 8.62509 3.20115 8.6968 3.31198C8.71636 3.34457 8.8663 3.39021 9.02929 3.40977C9.64863 3.49452 10.2354 3.95087 10.8221 4.79187C11.2459 5.41121 11.4414 5.848 11.5718 6.44778C11.6631 6.89762 11.813 8.54701 11.7674 8.59264C11.7544 8.60568 11.3241 8.4101 10.8091 8.15585C9.19879 7.35397 8.21437 7.2301 7.50376 7.72557C7.18431 7.94071 7.04089 8.20148 6.94962 8.75563C6.89746 9.0164 6.49326 10.242 6.01083 11.5394C3.14884 19.317 2.26873 21.7356 1.0105 25.2691C0.267293 27.3488 0 28.2028 0 28.5092C0 28.7765 0.228177 29.2329 0.423757 29.3633C0.671492 29.5263 1.04961 29.5523 1.48641 29.4415C1.70807 29.3893 3.52696 28.6266 5.52188 27.7465C18.1694 22.2115 20.0926 21.3771 20.386 21.338C20.7837 21.2858 21.1422 20.9598 21.2531 20.5361C21.4812 19.6886 21.0444 18.2608 20.0535 16.6245C19.8905 16.3572 19.7797 16.116 19.8058 16.0899C19.884 16.0182 21.7616 15.6596 22.4591 15.5879C22.8177 15.5553 23.5544 15.5097 24.089 15.4901C25.1386 15.451 25.8361 15.3728 26.5663 15.2098C28.4243 14.7991 28.1375 13.8016 26.1426 13.7364C24.1085 13.6647 21.9767 13.9841 19.871 14.6687L18.9061 14.9816L18.541 14.5122C17.6674 13.4235 15.3661 11.2656 13.7558 10.0399L13.1365 9.57055L13.13 8.31883C13.13 7.28226 13.1039 6.96281 12.98 6.38911C12.7127 5.13087 12.2368 4.21817 11.4088 3.39021C10.6004 2.57529 9.86376 2.22325 9.25746 2.35364Z" fill="#1D4ED8"/>
<path d="M7.97588 4.10053L7.51953 4.48517L7.48041 5.12406C7.45433 5.47611 7.4413 5.76948 7.45433 5.776C7.46085 5.78252 7.63688 5.80207 7.84549 5.82163C8.13235 5.84119 8.24969 5.82815 8.34096 5.7434C8.52351 5.58042 9.1298 4.84373 9.1298 4.79158C9.1298 4.70683 8.53654 3.71589 8.48439 3.71589C8.45831 3.71589 8.23014 3.89191 7.97588 4.10053Z" fill="white"/>
<path d="M15.7344 5.18995C15.5975 5.28774 15.3107 5.4768 15.1021 5.62022L14.7305 5.87448L15.1347 6.47426C15.3628 6.80022 15.5649 7.10011 15.591 7.13271C15.6171 7.17183 15.904 7.01536 16.2886 6.75459C16.6537 6.50685 16.947 6.29823 16.947 6.29171C16.947 6.23304 16.08 5.02044 16.0409 5.02044C16.0083 5.02044 15.8714 5.09868 15.7344 5.18995Z" fill="white"/>
<path d="M28.575 16.9761L27.9688 17.452L28.3795 17.9801C28.6011 18.2734 28.8032 18.5081 28.8228 18.5146C28.8619 18.5146 29.7876 17.8106 29.9767 17.6345C30.0419 17.5759 29.9832 17.4585 29.6638 17.0413C29.4421 16.7609 29.24 16.5197 29.2205 16.5132C29.1944 16.5067 28.901 16.7153 28.575 16.9761Z" fill="#1D4ED8"/>
<path d="M23.5164 18.5473C23.2035 18.782 22.9492 19.0036 22.9492 19.0428C22.9492 19.0949 23.5946 20.0011 23.8033 20.2358C23.8293 20.2619 24.1357 20.0793 24.4813 19.8251L25.1071 19.3557L24.905 19.0819C24.7942 18.9319 24.5921 18.6516 24.4617 18.4691C24.3313 18.28 24.1879 18.1235 24.1488 18.1235C24.1097 18.1235 23.8228 18.3126 23.5164 18.5473Z" fill="white"/>
<path d="M25.068 21.5924C24.9572 22.0814 24.8398 22.7398 24.8398 22.8572C24.8398 22.9745 24.9181 23.0071 25.5961 23.1375C26.0133 23.2157 26.3589 23.2744 26.3654 23.2614C26.4045 23.2157 26.6718 21.7619 26.6522 21.7358C26.6131 21.7032 25.3679 21.449 25.2245 21.449C25.1528 21.449 25.0876 21.5077 25.068 21.5924Z" fill="#1D4ED8"/>
</svg>
