<svg width="26" height="26" viewBox="0 0 26 26" fill="none" xmlns="http://www.w3.org/2000/svg">
<path d="M9.41379 10.1606H0V12.0533H9.41379V10.1606Z" fill="#F5F5F5"/>
<path d="M9.41374 6.37538H25.9985C25.9696 5.32523 25.1098 4.48267 24.0527 4.48267H1.9472C0.871758 4.48262 0 5.35442 0 6.42981V8.26809H9.41374V6.37538Z" fill="#F5F5F5"/>
<path d="M1.94773 21.517H24.0532C25.1104 21.517 25.9701 20.6744 25.999 19.6243H0.00195312C0.0308475 20.6744 0.890571 21.517 1.94773 21.517Z" fill="#F5F5F5"/>
<path d="M9.41406 6.37578V8.26849H26.0002V6.43022C26.0002 6.41194 25.9993 6.39391 25.9988 6.37573L9.41406 6.37578Z" fill="#4173CD"/>
<path d="M0 8.26831V10.161H9.41374H25.9999V8.26831H9.41374H0Z" fill="#F5F5F5"/>
<path d="M26.0002 10.1609H9.41406V12.0535H26.0002V10.1609Z" fill="#4173CD"/>
<path d="M0 12.0537V13.9465H25.9999V12.0537H9.41374H0Z" fill="#F5F5F5"/>
<path d="M25.9999 13.9468H0V15.8394H25.9999V13.9468Z" fill="#4173CD"/>
<path d="M25.9999 15.8394H0V17.732H25.9999V15.8394Z" fill="#F5F5F5"/>
<path d="M0 19.5702C0 19.5885 0.000914059 19.6065 0.00142187 19.6247H25.9986C25.9991 19.6065 26 19.5885 26 19.5702V17.7319H0V19.5702Z" fill="#4173CD"/>
<path d="M3.24805 5.66943L3.99793 9.1394L5.17133 8.65338L3.24805 5.66943Z" fill="#FFE15A"/>
<path d="M3.24805 5.66943L4.5846 8.89637L3.99793 9.1394L3.24805 5.66943Z" fill="#FFCD5A"/>
<path d="M6.16552 12.71L5.41559 9.23999L4.24219 9.72602L6.16552 12.71Z" fill="#FFE15A"/>
<path d="M6.16473 12.71L4.82812 9.48303L5.4148 9.23999L6.16473 12.71Z" fill="#FFCD5A"/>
<path d="M8.22778 7.73145L4.75781 8.48138L5.24384 9.65478L8.22778 7.73145Z" fill="#FFE15A"/>
<path d="M8.22778 7.73145L5.0008 9.06805L4.75781 8.48138L8.22778 7.73145Z" fill="#FFCD5A"/>
<path d="M1.18555 10.648L4.65552 9.89806L4.16944 8.72461L1.18555 10.648Z" fill="#FFE15A"/>
<path d="M1.18555 10.6479L4.41248 9.31128L4.65552 9.898L1.18555 10.6479Z" fill="#FFCD5A"/>
<path d="M6.16552 5.66943L4.24219 8.65338L5.41559 9.1394L6.16552 5.66943Z" fill="#FFE15A"/>
<path d="M6.16552 5.66943L4.82891 8.89637L4.24219 8.65338L6.16552 5.66943Z" fill="#FFCD5A"/>
<path d="M3.24805 12.71L5.17133 9.72602L3.99793 9.23999L3.24805 12.71Z" fill="#FFE15A"/>
<path d="M3.24805 12.7098L4.5846 9.48291L5.17133 9.7259L3.24805 12.7098Z" fill="#FFCD5A"/>
<path d="M8.22778 10.648L5.24384 8.72461L4.75781 9.89806L8.22778 10.648Z" fill="#FFE15A"/>
<path d="M8.22698 10.648L5 9.31133L5.24304 8.72461L8.22698 10.648Z" fill="#FFCD5A"/>
<path d="M1.18555 7.73145L4.16944 9.65478L4.65552 8.48138L1.18555 7.73145Z" fill="#FFE15A"/>
<path d="M1.18555 7.73145L4.41248 9.06805L4.16944 9.65478L1.18555 7.73145Z" fill="#FFCD5A"/>
<path d="M4.70733 5.37939L4.07227 8.87217H5.34235L4.70733 5.37939Z" fill="#FFE15A"/>
<path d="M4.70733 5.37939V8.87217H4.07227L4.70733 5.37939Z" fill="#FFCD5A"/>
<path d="M4.70733 13.0001L5.34235 9.50732H4.07227L4.70733 13.0001Z" fill="#FFE15A"/>
<path d="M4.70703 13.0001V9.50732H5.34205L4.70703 13.0001Z" fill="#FFCD5A"/>
<path d="M8.51816 9.1897L5.02539 8.55469V9.82472L8.51816 9.1897Z" fill="#FFE15A"/>
<path d="M8.51816 9.1897H5.02539V8.55469L8.51816 9.1897Z" fill="#FFCD5A"/>
<path d="M0.896484 9.1897L4.38926 9.82472V8.55469L0.896484 9.1897Z" fill="#FFE15A"/>
<path d="M0.896484 9.18994H4.38926V9.82496L0.896484 9.18994Z" fill="#FFCD5A"/>
<path d="M7.40127 6.49536L4.48242 8.51609L5.38054 9.41421L7.40127 6.49536Z" fill="#FFE15A"/>
<path d="M7.40127 6.49536L4.93148 8.96515L4.48242 8.51609L7.40127 6.49536Z" fill="#FFCD5A"/>
<path d="M2.01172 11.8841L4.93051 9.86345L4.0324 8.96533L2.01172 11.8841Z" fill="#FFE15A"/>
<path d="M2.01172 11.884L4.48146 9.41431L4.93051 9.86336L2.01172 11.884Z" fill="#FFCD5A"/>
<path d="M7.40127 11.8841L5.38054 8.96533L4.48242 9.86345L7.40127 11.8841Z" fill="#FFE15A"/>
<path d="M7.40143 11.8841L4.93164 9.41439L5.3807 8.96533L7.40143 11.8841Z" fill="#FFCD5A"/>
<path d="M2.01172 6.49536L4.0324 9.41421L4.93051 8.51609L2.01172 6.49536Z" fill="#FFE15A"/>
<path d="M2.01172 6.49536L4.48146 8.96515L4.0324 9.41421L2.01172 6.49536Z" fill="#FFCD5A"/>
<path d="M4.70753 10.46C5.40895 10.46 5.97757 9.89138 5.97757 9.18996C5.97757 8.48854 5.40895 7.91992 4.70753 7.91992C4.00611 7.91992 3.4375 8.48854 3.4375 9.18996C3.4375 9.89138 4.00611 10.46 4.70753 10.46Z" fill="#FFE15A"/>
</svg>
