<svg width="17" height="18" viewBox="0 0 17 18" fill="none" xmlns="http://www.w3.org/2000/svg">
<g clip-path="url(#clip0)">
<path fill-rule="evenodd" clip-rule="evenodd" d="M13.3963 3.70818C12.0026 2.2937 10.1416 1.50695 8.15336 1.49261C4.05647 1.46476 0.699528 4.77627 0.670018 8.87424C0.660562 10.1842 0.994084 11.4653 1.63689 12.5969L0.556221 16.4413L4.5035 15.4345C5.58517 16.0341 6.80534 16.3545 8.04923 16.3633L8.05235 16.3634C12.1488 16.3912 15.5061 13.0794 15.5355 8.98127C15.5498 6.99517 14.7901 5.12256 13.3963 3.70818ZM8.06079 15.1081L8.05823 15.1081C6.94973 15.1001 5.8646 14.7948 4.91977 14.2256L4.6952 14.0901L2.35282 14.6876L2.99242 12.4121L2.84707 12.1774C2.23534 11.1896 1.91651 10.0505 1.92499 8.88324C1.94943 5.4771 4.73969 2.7248 8.1473 2.74797C9.7974 2.75974 11.3442 3.4137 12.5026 4.58936C13.661 5.76502 14.2924 7.32153 14.2806 8.97228C14.256 12.3787 11.4659 15.1313 8.06079 15.1081ZM11.4809 10.5043C11.2959 10.41 10.3858 9.95464 10.2159 9.89141C10.0463 9.82827 9.9225 9.79658 9.79756 9.98158C9.67242 10.1666 9.31372 10.5826 9.20449 10.7057C9.09525 10.8289 8.98693 10.8437 8.8018 10.7495C8.61668 10.6553 8.01964 10.455 7.31451 9.81748C6.76581 9.32128 6.39724 8.71057 6.29011 8.52399C6.18316 8.33722 6.29108 8.24713 6.37417 8.14552C6.57691 7.89723 6.78001 7.63686 6.84274 7.51341C6.90556 7.38987 6.87527 7.28117 6.82939 7.18793C6.7837 7.09469 6.41849 6.17804 6.2663 5.80501C6.11789 5.442 5.96457 5.48984 5.85054 5.48339C5.74236 5.47726 5.6185 5.47531 5.49463 5.47447C5.37086 5.47363 5.16931 5.51868 4.99777 5.70355C4.82631 5.88833 4.34353 6.33431 4.33731 7.24844C4.3311 8.16258 4.99058 9.0502 5.08257 9.17479C5.17456 9.29938 6.3786 11.1835 8.23609 12.0006C8.6779 12.1951 9.023 12.3116 9.29222 12.399C9.73619 12.5434 10.1411 12.5262 10.4615 12.4806C10.8187 12.4297 11.5632 12.0387 11.7211 11.606C11.8787 11.1732 11.8813 10.8014 11.8353 10.7236C11.7895 10.6458 11.6659 10.5985 11.4809 10.5043Z" fill="white"/>
</g>
<defs>
<clipPath id="clip0">
<rect width="16" height="16" fill="white" transform="translate(0.108887 0.945801) rotate(0.389545)"/>
</clipPath>
</defs>
</svg>
